# xmcd CD database file
#
# Track frame offsets:
#	150
#	14664
#	27493
#	40859
#	55444
#	68874
#	81716
#	95692
#	106674
#	118856
#	131902
#	145925
#	161035
#	172814
#	186869
#	200721
#	214046
#	226569
#
# Disc length: 3226 seconds
#
# Revision: 2
# Processed by: cddbd v1.5.2PL0 Copyright (c) Steve Scherf et al.
# Submitted via: CDex 1.51
#
DISCID=0a0c9812
DTITLE=Ella Fitzgerald - Sugar Blues
DYEAR=1900
DGENRE=Blues
TTITLE0=Stairway To The Stars
TTITLE1=Shake Down The Stars
TTITLE2=This Love Of Mine
TTITLE3=I'm Not Complaining
TTITLE4=Shine
TTITLE5=Make Love To Me
TTITLE6=My Wubber Dolly (Rubber Dolly)
TTITLE7=Goody, Goody
TTITLE8=I'm The Lonesomest Gal In Town
TTITLE9=Sugar Blues
TTITLE10=The One I Love
TTITLE11=He's My Guy
TTITLE12=Baby, Won't You Please Come Home
TTITLE13=My Man
TTITLE14=Imagination
TTITLE15=I Got It Bad
TTITLE16=Deedle - Dee - Dum
TTITLE17=I'm Confessin'
EXTD=
EXTT0=
EXTT1=
EXTT2=
EXTT3=
EXTT4=
EXTT5=
EXTT6=
EXTT7=
EXTT8=
EXTT9=
EXTT10=
EXTT11=
EXTT12=
EXTT13=
EXTT14=
EXTT15=
EXTT16=
EXTT17=
PLAYORDER=
